PathFileType	4	(X/Y/Z)	C:/Users/beibeiliu/ov580/test_trc/User2\sequence.20_training_dense_right.trc
DataRate	CameraRate	NumFrames	NumMarkers	Units	OrigDataRate	OrigDataStartFrame	OrigNumFrames
120	120	10	19	mm	120	120	318
Frame#	Time	ThumbCMC			ThumbMCP			ThumbIP			ThumbTip			IndexMCP			IndexPIP			IndexTip			MiddleMCP			MiddlePIP			MiddleTip			RingMCP			RingPIP			RingTip			PinkyMCP			PinkyPIP			PinkyTip			BackHand1			BackHand2			BackHand3	
		X0	Y0	Z0	X1	Y1	Z1	X2	Y2	Z2	X3	Y3	Z3	X4	Y4	Z4	X5	Y5	Z5	X6	Y6	Z6	X7	Y7	Z7	X8	Y8	Z8	X9	Y9	Z9	X10	Y10	Z10	X11	Y11	Z11	X12	Y12	Z12	X13	Y13	Z13	X14	Y14	Z14	X15	Y15	Z15	X16	Y16	Z16	X17	Y17	Z17	X18	Y18	Z18	
119	0.991667	64.8291	-27.6643	52.5284	43.2269	-29.5384	25.3904	47.8676	-43.036	-5.73364	70.6684	-57.1127	-19.1073	77.5958	-14.8821	-27.9694	79.7062	-16.852	-58.1424	80.8607	-17.7471	-84.6505	98.8452	-15.9095	-40.8709	97.4993	-17.2997	-68.5657	101.934	-15.32	-95.7784	117.439	-24.8911	-33.5772	118.365	-24.194	-62.3402	112.663	-20.2318	-84.3615	138.573	-39.3692	-16.6846	132.308	-36.6463	-45.169	130.31	-29.3729	-64.9862	126.324	-20.6782	24.4934	129.275	-14.2359	52.7458	93.1316	-8.47702	38.1984	
120	1	61.9767	-28.5525	53.5847	41.4303	-31.7613	22.4922	48.9586	-47.8605	-7.47533	72.0539	-60.8924	-18.1494	80.0645	-20.4545	-33.3342	78.0547	-22.0895	-58.4663	82.8777	-24.8279	-83.5065	96.3662	-21.0323	-41.4821	99.1785	-23.9746	-66.5239	100.924	-20.97	-97.2366	118.427	-29.1714	-33.4448	119.387	-29.4744	-58.2043	116.553	-26.6355	-84.4341	137.969	-42.2896	-15.9054	134.668	-41.4772	-40.0401	131.888	-33.9527	-64.2742	123.839	-21.5404	20.9618	126.896	-14.0358	57.1134	92.9581	-8.38197	37.7294	
121	1.00833	60.7081	-30.5363	52.5175	39.7239	-36.7211	27.3595	50.6204	-51.6081	-8.60891	74.3105	-64.6036	-17.5848	80.1626	-24.8833	-29.9372	77.3669	-27.9496	-60.7152	83.4168	-30.0461	-86.7911	101.661	-25.9253	-37.248	99.1685	-28.4734	-66.2576	103.491	-27.8809	-100.193	121.699	-32.1539	-32.7795	120.651	-34.1578	-60.1566	114.404	-30.7053	-86.4068	136.911	-43.6025	-16.4484	133.029	-43.6391	-39.0069	134.087	-37.7382	-63.1056	124.61	-22.4639	22.8947	127.935	-17.0351	55.4337	94.3395	-12.8708	36.5648	
122	1.01667	58.6765	-31.531	52.0427	39.0328	-39.2184	24.9572	50.347	-54.6517	-6.72416	77.7864	-65.0985	-13.0193	77.5346	-27.6591	-32.5586	78.4096	-31.7634	-60.4722	81.0254	-35.1345	-82.2844	99.5837	-28.0065	-36.2475	101.644	-33.7203	-65.5969	101.865	-32.6883	-98.446	121.197	-34.3846	-33.4154	119.701	-36.4392	-58.6203	118.395	-35.5475	-86.36	133.094	-44.5454	-16.5499	133.191	-46.6705	-36.8404	136.753	-42.7467	-64.365	125.978	-22.2579	22.7568	127.579	-16.1435	59.4546	88.4933	-11.1484	40.8337	
123	1.025	58.2128	-32.8382	54.833	39.4385	-40.4966	22.5894	50.5586	-56.33	-3.94112	77.8116	-70.3513	-17.0438	76.9786	-30.0869	-31.2818	77.3694	-35.2962	-56.9851	85.1451	-40.6467	-86.6615	100.84	-31.7854	-37.5546	100.098	-37.6334	-67.4834	101.372	-38.3423	-96.2793	119.794	-36.1063	-34.0367	118.696	-40.0133	-57.2719	119.046	-41.4192	-83.2317	138.025	-45.7188	-12.3454	136.955	-49.287	-40.4112	137.62	-44.7851	-61.3543	125.99	-23.1486	25.2466	124.778	-13.9604	58.8756	88.1858	-13.4375	40.4394	
124	1.03333	60.1066	-34.7834	53.2472	40.0428	-41.9736	26.7131	51.1769	-60.7055	-4.53279	78.4517	-71.6774	-10.2984	77.5037	-34.6908	-32.8355	79.0565	-41.5952	-57.2537	82.6182	-47.0011	-83.401	97.0401	-35.1936	-39.7552	102.378	-42.2132	-63.1266	105.092	-44.3737	-95.8907	121.737	-40.6757	-31.2627	122.044	-44.3482	-54.9319	117.951	-46.2346	-83.2034	138.477	-47.7853	-14.4198	137.312	-52.6835	-38.4067	135.534	-50.6124	-59.0988	122.219	-25.1367	25.0604	119.953	-13.5305	59.1694	85.5189	-14.1026	39.4131	
125	1.04167	58.66	-34.0985	55.6544	38.7991	-44.4721	25.746	50.1323	-63.3397	-1.05583	79.1026	-74.046	-9.56828	76.8369	-38.1387	-28.089	76.9725	-46.2346	-53.7305	83.7214	-53.916	-82.7572	100.927	-38.8629	-35.69	98.1152	-46.652	-65.8538	105.664	-51.1872	-95.9898	117.78	-43.4412	-29.9926	122.49	-49.4854	-55.901	118.239	-52.2587	-78.9225	134.339	-50.8519	-8.21468	134.998	-55.4379	-30.9349	135.343	-55.1373	-54.9332	124.803	-23.467	25.4793	122.251	-14.4772	57.7853	85.6634	-15.3441	38.5901	
126	1.05	58.5887	-33.8924	56.2233	38.3359	-43.8704	30.3067	48.4279	-64.1008	0.296285	74.5473	-75.8764	-4.62777	73.8954	-40.4289	-26.433	79.445	-51.0106	-54.0265	85.8537	-59.0298	-78.0836	99.7765	-41.7898	-36.2555	100.152	-51.4802	-62.5689	105.329	-57.3025	-90.43	120.454	-45.76	-29.2296	119.538	-52.4141	-50.6682	120.675	-56.5059	-79.0139	136.154	-51.7771	-6.40164	137.833	-58.6149	-30.6903	134.116	-57.5804	-54.0345	120.387	-23.5347	26.5115	123.75	-12.1764	59.0457	85.6438	-12.8336	38.2581	
127	1.05833	56.4131	-30.301	58.8492	39.7789	-41.7048	32.7402	45.5418	-63.2645	6.55378	72.5538	-75.5363	-2.53845	75.5387	-42.071	-24.3994	72.3239	-52.1231	-51.4694	77.9681	-62.3261	-77.023	93.3344	-41.9726	-32.1336	96.9612	-54.5751	-60.7789	98.643	-61.3191	-90.2049	113.352	-46.3386	-25.5914	116.857	-54.5049	-51.8219	116.716	-60.035	-74.9742	133.806	-51.6819	-9.28292	131.936	-60.227	-32.1219	132.059	-59.7933	-53.5905	120.975	-24.6483	27.5455	118.75	-10.9648	63.0304	86.8737	-13.2166	44.0931	
128	1.06667	51.5344	-25.2553	64.2969	33.8771	-37.7594	39.1964	42.7718	-59.732	9.94258	69.6566	-74.0389	-2.74964	67.5547	-38.8528	-22.2862	69.582	-49.9809	-44.1839	71.9757	-62.0142	-70.0106	89.0032	-40.1656	-26.8637	87.0161	-52.4718	-57.8083	89.5823	-61.9672	-88.0122	107.504	-44.7682	-25.4499	108.453	-53.3428	-48.942	105.62	-59.9246	-75.4432	129.646	-51.1892	-7.42731	124.542	-57.9108	-26.5896	121.048	-61.7352	-48.8545	117.344	-23.0379	28.1496	120.195	-6.8041	60.655	83.9614	-9.57098	46.5932	
